<svg version="1.2" xmlns="http://www.w3.org/2000/svg" xmlns:xlink="http://www.w3.org/1999/xlink" overflow="visible" preserveAspectRatio="none" viewBox="0 0 226.74000549316406 89.25" width="161" height="63"><g transform="translate(1, 1)"><path d="M27.35,30.16c0-2-.36-2.6-3.27-3.06-0.31-.05-0.36-0.16-0.36-0.36V25.85c0-.21.1-0.31,0.41-0.36,2-.41,4.72-0.88,5.71-1.09,0.47-.05.83-0.16,1.19-0.16s0.31,0.36.26,0.93c-0.16,2.6-.21,10.12-0.21,16.71V53.36c0,1.92.1,4.2,0.52,4.72a3.87,3.87,0,0,0,2.28.88c0.73,0.05.93,0.1,1,.36L35,59.75a0.44,0.44,0,0,1-.36.57l-5.87,2a0.51,0.51,0,0,1-.68-0.41l-0.67-2.28a11.94,11.94,0,0,1-7.63,2.8A7.18,7.18,0,0,1,13.7,60c-2.65-2.6-3.27-4.93-3.27-8.41a12.36,12.36,0,0,1,3.63-8.82A10.44,10.44,0,0,1,21.8,39.5a19.41,19.41,0,0,1,5.55.78V30.16Zm0,16.45a5.13,5.13,0,0,0-.47-2.54c-0.73-1.4-2.39-2.8-5.45-2.8a6.4,6.4,0,0,0-4.72,1.87A9.91,9.91,0,0,0,14.32,50c0,5.86,4,10.12,7.06,10.12s5.14-1.5,5.66-2.85a4.87,4.87,0,0,0,.31-1.77V46.61Z" vector-effect="non-scaling-stroke"/><path d="M39.82,46.66c0-1.76-.31-2.7-2.91-3.11-0.36-.05-0.47-0.16-0.47-0.36V42.72a0.43,0.43,0,0,1,.36-0.36,42.67,42.67,0,0,0,5.6-2.54,2.14,2.14,0,0,1,1-.31c0.26,0,.31.26,0.26,0.62-0.1.88-.1,4.15-0.1,8.46v5.66c0,2,0,3.89.05,4.46,0.1,1,.26,1.35.83,1.35h2.39c0.41,0,.52.16,0.52,0.47v0.88a0.41,0.41,0,0,1-.47.52c-0.41,0-2.8-.16-5-0.16-3,0-5,.16-5.61.16a0.36,0.36,0,0,1-.41-0.41v-1c0-.31.16-0.41,0.52-0.41h2.54c0.57,0,.78-0.21.83-1,0.05-1.56.05-3.17,0.05-4.72V46.66ZM37.38,30.73a3.06,3.06,0,0,1,3.27-2.91,2.74,2.74,0,0,1,2.8,2.75,3,3,0,0,1-3.12,3.06A3.16,3.16,0,0,1,37.38,30.73Z" vector-effect="non-scaling-stroke"/><path d="M50.72,74.23A4.69,4.69,0,0,1,48.07,70c0-2.91,3-5.14,5.45-6.23V63.59A4,4,0,0,1,50,60c0-2.49,2.85-4.26,4.67-4.93v-0.1A8.25,8.25,0,0,1,49.89,47c0-3.37,3-7.53,8.88-7.53a8.33,8.33,0,0,1,6.54,3,9.22,9.22,0,0,1,4.88-2c1.71,0,2.54,1.14,2.44,2.18a2,2,0,0,1-2,1.92,2.59,2.59,0,0,1-1.82-.78,2.06,2.06,0,0,0-1.09-.47,3.76,3.76,0,0,0-1.66.31,9.81,9.81,0,0,1,.78,3.94,8.56,8.56,0,0,1-1.92,5.6,9.29,9.29,0,0,1-8.67,2.34c-1,.42-2.75,1.45-2.75,2.91,0,2.13,2.6,2,6.07,1.76,4.26-.21,6.85.26,8.93,1.87a6.1,6.1,0,0,1,2.54,5c0,2.44-.88,4.46-3.48,6.38a15.62,15.62,0,0,1-8.88,2.44A16.24,16.24,0,0,1,50.72,74.23Zm17.13-5.35c0-3.06-2.34-5.4-7.53-5l-5,.36c-1.61.41-4.15,2.18-4.15,5a5,5,0,0,0,2,3.58c1.71,1.19,3.58,1.45,7.27,1.45C62.4,74.23,68.11,72.88,67.85,68.88ZM63,46.77c0-2.28-.47-3.63-1.4-4.67A3.93,3.93,0,0,0,59.13,41a4.77,4.77,0,0,0-3.69,1.45c-1.66,1.76-1.87,4.15-1.87,6.12A6.46,6.46,0,0,0,55.23,53a4.24,4.24,0,0,0,3.11,1.3C61.88,54.35,63,50,63,46.77Z" vector-effect="non-scaling-stroke"/><path d="M76.78,46.66c0-1.76-.31-2.7-2.91-3.11-0.36-.05-0.47-0.16-0.47-0.36V42.72a0.43,0.43,0,0,1,.36-0.36,42.67,42.67,0,0,0,5.6-2.54,2.14,2.14,0,0,1,1-.31c0.26,0,.31.26,0.26,0.62-0.1.88-.1,4.15-0.1,8.46v5.66c0,2,0,3.89.05,4.46,0.1,1,.26,1.35.83,1.35h2.39c0.41,0,.52.16,0.52,0.47v0.88a0.41,0.41,0,0,1-.47.52c-0.41,0-2.8-.16-5-0.16-3,0-5,.16-5.61.16a0.36,0.36,0,0,1-.41-0.41v-1c0-.31.16-0.41,0.52-0.41h2.54c0.57,0,.78-0.21.83-1,0.05-1.56.05-3.17,0.05-4.72V46.66ZM74.34,30.73a3.06,3.06,0,0,1,3.27-2.91,2.74,2.74,0,0,1,2.8,2.75,3,3,0,0,1-3.12,3.06A3.16,3.16,0,0,1,74.34,30.73Z" vector-effect="non-scaling-stroke"/><path d="M89.34,48c0-2.65-.41-3.17-1.87-3.94l-1-.52c-0.31-.1-0.42-0.16-0.42-0.36V42.82a0.52,0.52,0,0,1,.42-0.47l5.14-2.65a1.56,1.56,0,0,1,.73-0.21c0.31,0,.36.31,0.36,0.62L93,43.81h0.21c1.56-2.39,4-4.52,6.23-4.52a2.35,2.35,0,0,1,2.65,2.28,2.51,2.51,0,0,1-2.18,2.54,3.4,3.4,0,0,1-1.51-.42,3.34,3.34,0,0,0-1.71-.41,3.68,3.68,0,0,0-3.06,2.18,5.58,5.58,0,0,0-.52,1.66v10.8c0,1.61.36,2.13,1.45,2.13H97c0.31,0,.36.16,0.36,0.47v0.93c0,0.31-.05.47-0.26,0.47s-2.7-.16-5.5-0.16c-3.22,0-5.4.16-5.71,0.16s-0.31-.1-0.31-0.52V60.52c0-.36.1-0.47,0.57-0.47h2a0.93,0.93,0,0,0,1.14-1c0.05-1.71.05-3.53,0.05-6.23V48Z" vector-effect="non-scaling-stroke"/><path d="M120.23,59.48a2.39,2.39,0,0,0,1.82-.78c0.21-.26.31-0.36,0.52-0.21l0.52,0.42a0.69,0.69,0,0,1-.05.93,4.28,4.28,0,0,1-4,2.54c-1.87,0-3.22-1.35-3.69-3.48h-0.1a11.19,11.19,0,0,1-5.14,3.17,9.78,9.78,0,0,1-3.06.31c-1.25,0-3.11-1-3.11-4.31,0-2.39,1.09-4.46,5.19-6.28a34.39,34.39,0,0,0,5.86-3V45.47a6,6,0,0,0-.73-2.91,3.94,3.94,0,0,0-3.11-1.14,5.82,5.82,0,0,0-3.37,1.09c-0.73.68-.26,1.45-0.26,2.39,0,1.82-.62,3-2.75,3-0.83,0-1.25-.47-1.25-1.66,0-1.66,1.45-3.63,3.58-4.88a11.45,11.45,0,0,1,6.33-1.82,5.33,5.33,0,0,1,4.15,1.4,4.59,4.59,0,0,1,1.14,3.69v11C118.67,58.55,119.29,59.48,120.23,59.48Zm-5.35-9.14c-1.87,1.4-7,2.44-7,6.75a2.55,2.55,0,0,0,2.7,2.85c1.51,0,4.26-1.82,4.26-3.22V50.35Z" vector-effect="non-scaling-stroke"/><path d="M131.13,55.28c0,3.89,1.77,4.57,2.7,4.57a7.46,7.46,0,0,0,3.43-.67,0.42,0.42,0,0,1,.62.1l0.26,0.47a0.41,0.41,0,0,1-.1.57,8.73,8.73,0,0,1-5.76,2.08c-2.54,0-5-2.44-5-4.41,0-2.13.16-6.7,0.16-7.42V49.42c0-.93.05-4.47,0.1-6.64h-3.17a0.65,0.65,0,0,1-.78-0.62c0-.42.31-0.57,0.93-0.93,1.25-.73,5.24-4.72,5.92-6.49a0.7,0.7,0,0,1,.73-0.52c0.42,0,.52.36,0.52,0.78l-0.26,5.09h7.22a0.34,0.34,0,0,1,.36.47l-0.52,1.82a0.43,0.43,0,0,1-.47.42h-6.7c-0.1,2.39-.16,4.93-0.16,7.32v5.19Z" vector-effect="non-scaling-stroke"/><path d="M143.17,46.66c0-1.76-.31-2.7-2.91-3.11-0.36-.05-0.47-0.16-0.47-0.36V42.72a0.43,0.43,0,0,1,.36-0.36,42.67,42.67,0,0,0,5.6-2.54,2.14,2.14,0,0,1,1-.31c0.26,0,.31.26,0.26,0.62-0.1.88-.1,4.15-0.1,8.46v5.66c0,2,0,3.89.05,4.46,0.1,1,.26,1.35.83,1.35h2.39c0.41,0,.52.16,0.52,0.47v0.88a0.41,0.41,0,0,1-.47.52c-0.41,0-2.8-.16-5-0.16-3,0-5,.16-5.61.16a0.36,0.36,0,0,1-.41-0.41v-1c0-.31.16-0.41,0.52-0.41h2.54c0.57,0,.78-0.21.83-1,0.05-1.56.05-3.17,0.05-4.72V46.66Zm-2.44-15.93A3.06,3.06,0,0,1,144,27.82a2.74,2.74,0,0,1,2.8,2.75,3,3,0,0,1-3.12,3.06A3.16,3.16,0,0,1,140.73,30.73Z" vector-effect="non-scaling-stroke"/><path style="fill:#00d1b8" d="M178.52,48.06l-18.8-18.8,18.8-18.81,18.81,18.81ZM163.3,29.26l15.22,15.22,15.22-15.22L178.52,14Z" vector-effect="non-scaling-stroke"/><path style="fill:#00d1b8" d="M194.94,48.06l-18.8-18.8,18.8-18.81,18.81,18.81Zm-15.22-18.8,15.22,15.22,15.22-15.22L194.94,14Z" vector-effect="non-scaling-stroke"/></g></svg>